<?xml version="1.0" encoding="UTF-8"?>
<svg id="Layer_2" data-name="Layer 2" xmlns="http://www.w3.org/2000/svg" viewBox="0 0 796.67 182.95">
  <defs>
    <style>
      .cls-1 {
        fill: #007aff;
      }

      .cls-2 {
        fill: #00011f;
      }

      .cls-3 {
        fill: #fff;
      }
    </style>
  </defs>
  <g id="Layer_2-2" data-name="Layer 2">
    <g id="LOGO">
      <g>
        <path class="cls-1" d="M167.37,76.47c-2.08,0-4.06.41-5.88,1.15l-55.63-55.63c.84-1.92,1.32-4.05,1.32-6.3,0-8.66-7.03-15.69-15.7-15.69s-15.69,7.03-15.69,15.69c0,2.24.47,4.37,1.32,6.29l-55.09,55.1c-1.93-.86-4.07-1.33-6.32-1.33-8.66,0-15.69,7.03-15.69,15.7s7.03,15.69,15.69,15.69c2.25,0,4.39-.47,6.32-1.32l55.1,55.11c-.86,1.93-1.33,4.07-1.33,6.32,0,8.66,7.03,15.7,15.69,15.7s15.7-7.03,15.7-15.7c0-2.26-.47-4.39-1.33-6.33l54.64-54.64c2.08,1.02,4.42,1.58,6.88,1.58,8.66,0,15.69-7.02,15.69-15.69s-7.03-15.7-15.69-15.7ZM147.91,101.1l-46.75,46.75c-5.31,5.31-13.93,5.31-19.24,0l-46.75-46.75c-5.31-5.31-5.31-13.93,0-19.24l46.75-46.75c5.31-5.32,13.93-5.32,19.24,0l46.75,46.75c5.31,5.31,5.31,13.93,0,19.24Z"/>
        <g>
          <path class="cls-1" d="M136.38,91.48c-11.66,3.29-23.31,6.58-34.97,9.88-3.29,11.66-6.59,23.31-9.88,34.97-3.29-11.66-6.59-23.31-9.88-34.97-11.66-3.3-23.31-6.59-34.97-9.88,11.66-3.3,23.31-6.59,34.97-9.88,3.29-11.66,6.59-23.32,9.88-34.97,3.29,11.65,6.59,23.31,9.88,34.97,11.66,3.29,23.31,6.58,34.97,9.88Z"/>
          <path class="cls-3" d="M112.46,91.48c-5.44,1.54-10.88,3.07-16.32,4.61-1.54,5.44-3.07,10.88-4.61,16.32-1.54-5.44-3.07-10.88-4.61-16.32-5.44-1.54-10.88-3.07-16.32-4.61,5.44-1.54,10.88-3.07,16.32-4.61,1.54-5.44,3.07-10.88,4.61-16.32,1.54,5.44,3.07,10.88,4.61,16.32,5.44,1.54,10.88,3.07,16.32,4.61Z"/>
        </g>
      </g>
      <g>
        <path class="cls-2" d="M210.85,54.65h17.25v62.74h39.1v15.68h-56.35V54.65Z"/>
        <path class="cls-2" d="M280.2,54.65h59.15v15.35h-42.01v15.91h36.97v15.35h-36.97v16.47h42.57v15.35h-59.71V54.65Z"/>
        <path class="cls-2" d="M355.25,54.65h15.91l36.75,48.29v-48.29h17.03v78.42h-14.68l-37.98-49.85v49.85h-17.03V54.65Z"/>
        <path class="cls-2" d="M441.4,119.96l43.13-50.19h-41.79v-15.12h63.97v13.11l-43.13,50.19h43.13v15.12h-65.31v-13.11Z"/>
        <path class="cls-2" d="M515.68,94.08v-.22c0-22.29,17.59-40.56,41.79-40.56s41.56,18.04,41.56,40.33v.22c0,22.29-17.59,40.56-41.79,40.56s-41.56-18.04-41.56-40.33ZM580.99,94.08v-.22c0-13.44-9.86-24.65-23.75-24.65s-23.53,10.98-23.53,24.42v.22c0,13.44,9.86,24.65,23.75,24.65s23.53-10.98,23.53-24.42Z"/>
        <path class="cls-2" d="M610.9,94.08v-.22c0-22.29,17.59-40.56,41.79-40.56s41.56,18.04,41.56,40.33v.22c0,22.29-17.59,40.56-41.79,40.56s-41.56-18.04-41.56-40.33ZM676.21,94.08v-.22c0-13.44-9.86-24.65-23.75-24.65s-23.53,10.98-23.53,24.42v.22c0,13.44,9.86,24.65,23.75,24.65s23.53-10.98,23.53-24.42Z"/>
      </g>
      <path class="cls-1" d="M740.2,104.87h-15.89c-3.4,0-6.15-2.75-6.15-6.15v-9.19c0-3.4,2.75-6.15,6.15-6.15h15.89c3.4,0,6.15-2.75,6.15-6.15v-15.74c0-3.4,2.75-6.15,6.15-6.15h9.82c3.4,0,6.15,2.75,6.15,6.15v15.74c0,3.4,2.75,6.15,6.15,6.15h15.89c3.4,0,6.15,2.75,6.15,6.15v9.19c0,3.4-2.75,6.15-6.15,6.15h-15.89c-3.4,0-6.15,2.75-6.15,6.15v15.74c0,3.4-2.75,6.15-6.15,6.15h-9.82c-3.4,0-6.15-2.75-6.15-6.15v-15.74c0-3.4-2.75-6.15-6.15-6.15Z"/>
    </g>
  </g>
</svg>